HIERARCHY
ROOT root
{
	OFFSET 0.000000 0.000000 0.000000
	CHANNELS 6 Xposition Yposition Zposition Zrotation Yrotation Xrotation
	JOINT lhip
	{
		OFFSET 0.058581 -0.082280 -0.017664
		CHANNELS 3 Zrotation Yrotation Xrotation
		JOINT lknee
		{
			OFFSET 0.043451 -0.386469 0.008037
			CHANNELS 3 Zrotation Yrotation Xrotation
			JOINT lankle
			{
				OFFSET -0.014790 -0.426874 -0.037428
				CHANNELS 3 Zrotation Yrotation Xrotation
				JOINT ltoe
				{
					OFFSET 0.041054 -0.060286 0.122042
					CHANNELS 3 Zrotation Yrotation Xrotation
					End Site
					{
						OFFSET 0.000000 0.000000 0.000000
					}
				}
			}
		}
	}
	JOINT rhip
	{
		OFFSET -0.060310 -0.090513 -0.013543
		CHANNELS 3 Zrotation Yrotation Xrotation
		JOINT rknee
		{
			OFFSET -0.043257 -0.383688 -0.004843
			CHANNELS 3 Zrotation Yrotation Xrotation
			JOINT rankle
			{
				OFFSET 0.019056 -0.420046 -0.034562
				CHANNELS 3 Zrotation Yrotation Xrotation
				JOINT rtoe
				{
					OFFSET -0.034840 -0.062106 0.130323
					CHANNELS 3 Zrotation Yrotation Xrotation
					End Site
					{
						OFFSET 0.000000 0.000000 0.000000
					}
				}
			}
		}
	}
	JOINT lowerback
	{
		OFFSET 0.004439 0.124404 -0.038385
		CHANNELS 3 Zrotation Yrotation Xrotation
		JOINT upperback
		{
			OFFSET 0.004488 0.137956 0.026820
			CHANNELS 3 Zrotation Yrotation Xrotation
			JOINT chest
			{
				OFFSET -0.002265 0.056032 0.002855
				CHANNELS 3 Zrotation Yrotation Xrotation
				JOINT lowerneck
				{
					OFFSET -0.013390 0.211636 -0.033468
					CHANNELS 3 Zrotation Yrotation Xrotation
					JOINT upperneck
					{
						OFFSET 0.010113 0.088937 0.050410
						CHANNELS 3 Zrotation Yrotation Xrotation
						End Site
						{
							OFFSET 0.000000 0.000000 0.000000
						}
					}
				}
				JOINT lclavicle
				{
					OFFSET 0.071702 0.114000 -0.018898
					CHANNELS 3 Zrotation Yrotation Xrotation
					JOINT lshoulder
					{
						OFFSET 0.122921 0.045205 -0.019046
						CHANNELS 3 Zrotation Yrotation Xrotation
						JOINT lelbow
						{
							OFFSET 0.255332 -0.015649 -0.022946
							CHANNELS 3 Zrotation Yrotation Xrotation
							JOINT lwrist
							{
								OFFSET 0.265709 0.012698 -0.007375
								CHANNELS 3 Zrotation Yrotation Xrotation
								End Site
								{
									OFFSET 0.000000 0.000000 0.000000
								}
							}
						}
					}
				}
				JOINT rclavicle
				{
					OFFSET -0.082954 0.112472 -0.023707
					CHANNELS 3 Zrotation Yrotation Xrotation
					JOINT rshoulder
					{
						OFFSET -0.113228 0.046853 -0.008472
						CHANNELS 3 Zrotation Yrotation Xrotation
						JOINT relbow
						{
							OFFSET -0.260127 -0.014369 -0.031269
							CHANNELS 3 Zrotation Yrotation Xrotation
							JOINT rwrist
							{
								OFFSET -0.269108 0.006794 -0.006027
								CHANNELS 3 Zrotation Yrotation Xrotation
								End Site
								{
									OFFSET 0.000000 0.000000 0.000000
								}
							}
						}
					}
				}
			}
		}
	}
}
MOTION
Frames: 7
Frame Time: 0.033333
-1.114737 1.140895 0.936878 -27.814082 -5.594783 81.461359 -19.103115 -1.616087 5.014859 -11.187848 -12.603613 17.908383 12.299755 14.994372 -23.729827 0.000000 -0.000000 0.000000 -16.412505 -6.688636 -22.346670 4.461150 5.241034 3.145382 9.265746 -5.351418 10.189594 0.000000 -0.000000 0.000000 9.614299 0.312018 11.809019 13.305830 -2.468530 0.876144 6.255468 3.010946 -3.572890 4.342050 0.128820 -7.274372 2.132788 -0.573201 2.058874 -1.758890 -4.261441 -12.718456 15.130106 -4.989078 -12.006757 17.575341 -38.381330 -29.839783 37.995569 -30.014019 -3.911092 20.375666 26.082209 -7.484008 -3.111427 33.414127 -2.583728 15.937900 41.698590 -6.246417 -5.856540 18.029538 -1.280514 
-1.120978 1.133545 0.940089 -24.202583 -5.542839 81.884108 -18.571236 -1.928564 6.610746 -11.110811 -15.180864 16.493454 11.764177 14.020378 -23.371277 0.000000 -0.000000 0.000000 -16.271658 -6.070500 -22.624143 4.279977 6.610849 3.468987 9.047900 -4.681588 8.236814 0.000000 -0.000000 0.000000 9.134954 -0.217628 11.323716 13.154283 -2.384125 0.832460 6.255287 2.747037 -3.785095 4.247815 -0.085254 -7.641169 2.351055 -0.090856 1.770629 -1.944087 -4.030237 -12.965118 14.997346 -5.488758 -11.574990 17.766690 -38.736416 -29.399135 39.030028 -29.535331 -5.044696 20.537052 25.775463 -7.487269 -3.627855 33.804847 -2.778320 15.812608 41.488551 -6.311476 -6.211388 18.142620 -1.918789 
-1.128851 1.124549 0.943610 -20.380399 -5.164088 82.154329 -17.492053 -1.906933 8.384303 -10.909470 -18.217625 15.299170 11.136964 12.697100 -22.883070 0.000000 -0.000000 0.000000 -16.079295 -5.654536 -22.263585 4.158109 7.429775 3.889982 8.959784 -4.530586 6.174461 0.000000 -0.000000 0.000000 8.792308 -0.539692 10.656049 13.053917 -2.529881 0.605260 6.356987 2.520477 -3.577436 4.311626 -0.128723 -7.651516 2.651673 -0.085912 1.170774 -2.116082 -4.430406 -12.792451 15.126687 -5.267856 -11.491861 17.722334 -39.134671 -29.409510 40.241484 -29.964452 -5.215895 20.414102 26.026332 -7.301024 -4.402880 33.419783 -3.511659 15.639047 41.066319 -6.524687 -6.391165 18.392994 -2.035569 
-1.139608 1.113429 0.948344 -15.522259 -4.877675 83.189293 -16.053289 -2.733166 9.629121 -10.963942 -22.124587 13.986557 10.371155 11.361489 -21.610843 0.000000 -0.000000 0.000000 -16.304697 -5.400126 -22.077828 4.419352 8.602548 4.601403 8.850180 -3.809874 4.380733 0.000000 -0.000000 0.000000 7.956738 -0.718694 9.618953 12.774252 -2.688068 0.200644 6.538446 2.360685 -3.579080 4.201801 -0.053363 -8.615866 2.759593 0.441450 1.305834 -2.376293 -4.546613 -12.777368 15.430721 -5.191167 -11.518800 17.909980 -39.764344 -29.611357 40.368574 -30.347475 -4.773794 20.379543 26.078337 -7.269429 -5.438805 33.486386 -4.179553 15.590918 40.183441 -6.471448 -5.671466 18.788121 -1.592652 
-1.147471 1.106472 0.952568 -12.906240 -4.602553 83.558152 -15.059739 -3.127411 10.621310 -10.706641 -24.225715 13.190229 10.054085 10.677930 -20.729665 0.000000 -0.000000 0.000000 -16.232217 -4.800479 -21.251210 4.431694 10.319270 4.755195 9.452799 -3.180861 3.292145 0.000000 -0.000000 0.000000 7.625685 -0.544523 9.211797 12.571341 -2.752331 0.346883 6.466212 2.435132 -3.818820 4.189115 -0.327499 -8.911373 2.984715 0.700286 1.197515 -2.568057 -4.870937 -12.635408 15.694387 -4.927233 -11.253065 17.888132 -39.860370 -29.113036 40.373676 -29.662187 -5.043111 20.408284 26.191100 -7.060989 -6.014722 33.188592 -4.546844 15.646878 39.971750 -6.360883 -6.187406 18.526555 -2.115246 
-1.159179 1.096407 0.958613 -9.688003 -4.186043 84.172527 -13.309863 -3.441438 11.553789 -10.336590 -26.333594 12.307889 8.924982 9.059538 -19.461528 0.000000 -0.000000 0.000000 -15.845352 -4.125373 -20.150670 4.557953 11.734728 4.893091 10.294816 -2.004075 2.237139 0.000000 -0.000000 0.000000 7.084907 -0.362428 8.918748 12.158280 -2.519543 0.158990 6.435733 2.429073 -3.897700 4.004946 0.771181 -8.864494 3.510179 0.390924 -0.079002 -2.524535 -4.900621 -12.982026 15.621148 -5.021483 -11.279641 18.007160 -39.900322 -29.397813 39.717559 -30.672340 -4.607645 20.356886 26.390994 -6.763310 -6.378332 33.089547 -5.045718 15.049889 39.393715 -6.838883 -5.567649 18.999725 -2.067050 
-1.171599 1.084523 0.964730 -6.696666 -4.246946 85.016811 -11.881618 -3.624681 11.968320 -10.391527 -28.165893 11.761265 7.914364 7.559084 -17.628871 0.000000 -0.000000 0.000000 -15.561015 -3.926641 -19.049128 4.909571 12.828030 4.867182 10.628116 -1.743529 1.008498 0.000000 -0.000000 0.000000 6.148008 0.044167 8.320391 11.579639 -2.395737 -0.026156 6.444784 2.570818 -3.915921 4.010970 1.135215 -9.622804 3.068928 0.679261 0.398714 -2.736318 -5.197680 -12.983691 15.798790 -4.637488 -11.223422 17.961973 -40.144518 -29.620187 39.466964 -30.402993 -4.403411 20.358792 26.577824 -6.218220 -6.982401 32.841841 -5.658048 15.218664 39.570011 -6.902635 -5.668001 18.596078 -2.368901 
